<svg xmlns="http://www.w3.org/2000/svg" viewBox="0 0 1233.95 1014.61"><defs><style>.cls-1{fill:#07182a;}.cls-2{fill:#0177ff;}</style></defs><title>Updated logo with text</title><g id="Layer_2" data-name="Layer 2"><g id="Layer_1-2" data-name="Layer 1"><path class="cls-1" d="M299.09,1002.81V968.73h48.13a5,5,0,0,0,.72-10,4.33,4.33,0,0,0-.72,0H299.09V925.49h54.38a5,5,0,0,0,0-10H288.11v97.36h66.06a5,5,0,0,0,0-10Zm446.8-38.72a52.8,52.8,0,0,0-3.53-19.26,48.59,48.59,0,0,0-10.1-16,47.93,47.93,0,0,0-15.58-10.91A50,50,0,0,0,660.41,929a51.21,51.21,0,0,0-10.15,16.07,51.81,51.81,0,0,0-3.61,19.26,52.62,52.62,0,0,0,3.56,19.26,47.89,47.89,0,0,0,25.72,26.92,52.69,52.69,0,0,0,40.55,0,48.33,48.33,0,0,0,15.7-11.06,50.06,50.06,0,0,0,10.15-16.07,51.58,51.58,0,0,0,3.61-19.26Zm-11.4.28A43,43,0,0,1,731.64,980a39.83,39.83,0,0,1-7.79,12.71,35.92,35.92,0,0,1-12,8.54,38.88,38.88,0,0,1-30.73-.05,38.08,38.08,0,0,1-20.22-21.49A43.34,43.34,0,0,1,658,963.93a42.5,42.5,0,0,1,2.86-15.57,40,40,0,0,1,7.78-12.75,36.21,36.21,0,0,1,12-8.54,37.11,37.11,0,0,1,15.37-3.14,36.69,36.69,0,0,1,15.37,3.19,38.24,38.24,0,0,1,20.16,21.44,43.27,43.27,0,0,1,2.86,15.71Zm117.66,38.34-22.22-29.57a38.47,38.47,0,0,0,10.57-3.32,31.07,31.07,0,0,0,8.41-5.92,24.74,24.74,0,0,0,5.5-8.33,28.93,28.93,0,0,0,2-10.93,27.56,27.56,0,0,0-2.6-11.91,26.33,26.33,0,0,0-7.08-9.16,32.26,32.26,0,0,0-11.06-5.92,46.83,46.83,0,0,0-14.54-2.1H779.32v91.86a5.5,5.5,0,1,0,11,.75,4.69,4.69,0,0,0,0-.75V975h27.8l25.56,34.21,1.8,2.44a5.62,5.62,0,0,0,9-4.46,5.23,5.23,0,0,0-.31-1.84l-2.05-2.6Zm-6.77-57.6a18.91,18.91,0,0,1-1.9,8.52,17.79,17.79,0,0,1-5.19,6.33,24.45,24.45,0,0,1-7.94,4,34.29,34.29,0,0,1-10,1.37h-30V925.64h30.11c7.78,0,14,1.69,18.4,5.2a17,17,0,0,1,6.57,14.3Zm44.67,62.3a5.5,5.5,0,1,0,11,.75,4.7,4.7,0,0,0,0-.75V986.64l20.76-21,37.43,47.14c4.44,4.44,11.43-1.69,8.15-7.06l-2.59-3.22L929.4,958l31.15-31.7,4.23-4.31c4.18-4.2-3.17-11.16-7.79-6.56l-55.91,58.14V921a5.5,5.5,0,1,0-11-.75,4.7,4.7,0,0,0,0,.75v86.36Zm138-83.51a42.14,42.14,0,0,1,14.4,2.6,43.14,43.14,0,0,1,8,4c.83.54,1.69,1.09,2.59,1.69a5.6,5.6,0,0,0,1.72.25,5.53,5.53,0,0,0,5.53-5.52h0a5.5,5.5,0,0,0-1.12-3.33c-1.06-.75-2.13-1.42-3.22-2.07a52.92,52.92,0,0,0-8.9-4.31,53.78,53.78,0,0,0-18.69-2.94,39,39,0,0,0-12.8,2,31.8,31.8,0,0,0-10.15,5.58,24.72,24.72,0,0,0-6.67,8.41A24.07,24.07,0,0,0,996.42,941a26.48,26.48,0,0,0,2,10.59,20.72,20.72,0,0,0,6,7.79,36,36,0,0,0,10.26,5.71,100.53,100.53,0,0,0,14.53,4.2,98.49,98.49,0,0,1,12.64,3.48,27.19,27.19,0,0,1,7.79,4,12.15,12.15,0,0,1,3.92,4.94,16.18,16.18,0,0,1,1.12,6.23,14.71,14.71,0,0,1-5.92,12.12,25.11,25.11,0,0,1-15.78,4.57,44.17,44.17,0,0,1-17.94-3.4,51.62,51.62,0,0,1-9.94-5.84,29.6,29.6,0,0,1-2.6-2.08,5.92,5.92,0,0,0-1.92-.34,5.52,5.52,0,0,0-4.59,8.62c1,.75,1.89,1.48,2.88,2.18a55.72,55.72,0,0,0,12.43,6.83,58.24,58.24,0,0,0,21.34,3.76,44.21,44.21,0,0,0,13.37-1.95,30,30,0,0,0,10.38-5.58,26,26,0,0,0,6.83-8.74,26.49,26.49,0,0,0,2.46-11.45,21.72,21.72,0,0,0-7.79-17.68c-5.19-4.26-13.13-7.63-24-10a95.63,95.63,0,0,1-13.21-3.53,29.49,29.49,0,0,1-8.07-4.18,12.24,12.24,0,0,1-4-5.19,16.54,16.54,0,0,1-1.11-6.26,13.94,13.94,0,0,1,1.45-6.28,14.36,14.36,0,0,1,4.18-5,21,21,0,0,1,6.54-3.35,27.78,27.78,0,0,1,8.54-1.25Zm-849.28,83.59V932.94l61.8,78.47c3,2.59,9.84,2.2,9.84-4.39V920.84a5.37,5.37,0,1,0-10.72-.74,4.57,4.57,0,0,0,0,.74v72.68L179.2,916.59l-.81-1h0A6,6,0,0,0,168,919.83v87.73a5.35,5.35,0,1,0,10.69,0h0Zm351.37.36,21.34-62.76c1.82-5.38,5.37-5.2,7.14,0l21,62.06,1.12,3.32a7,7,0,0,0,9.64,2,7.05,7.05,0,0,0,1.73-1.63l1.37-3.84,29.18-82.31,1.19-3.38h0a5.65,5.65,0,0,0-5.53-5.63h-.21a5.65,5.65,0,0,0-4.69,2.6l-.81,2.31-26,76.08L561.28,920l-.34-1a6.17,6.17,0,0,0-5.78-3.82,6.27,6.27,0,0,0-5.64,3.72l-.26,1.06-25.1,76.49-25.95-75.27L497.12,918a6,6,0,0,0-10.85,3l1.58,4.49L518,1010.42a6.68,6.68,0,0,0,11.45-.31l.75-2.26Zm-13.16-.16v0ZM389.6,925.64h27.6v81.69a5.5,5.5,0,0,0,11,0V925.64h27.62a5.19,5.19,0,0,0,0-10.17H389.63a5.19,5.19,0,0,0,0,10.17Z"/><path class="cls-1" d="M34.2,810.76,73.89,722l.23-.49a5.66,5.66,0,0,1,10.13,0l.23.49L124,810.76l5.56,12.48,10.56,23.88,1.64,3.69c5.4,7.29,18.37,3,16.79-7l-2-4.49L86.4,684.66l-.39-.88a7.1,7.1,0,0,0-12.4-.13l-.5,1.12L2.61,839,0,844.53a9.35,9.35,0,0,0,15.57,7.53l2.83-6.34,9.94-22.16,5.74-12.8Zm834-112a9.32,9.32,0,0,0-18.61-1,8.18,8.18,0,0,0,0,1v86.56q0,27.1-13.45,40.75t-36.34,13.66q-23.79,0-37.11-14.36t-13.29-41.22V698.76a9.32,9.32,0,0,0-18.62-1q0,.5,0,1v86.56a89.22,89.22,0,0,0,4.94,30.86,61.18,61.18,0,0,0,14,22.51,58.4,58.4,0,0,0,21.68,13.65,87.75,87.75,0,0,0,56.06,0,57.81,57.81,0,0,0,21.68-13.78,62,62,0,0,0,14-22.84,93.31,93.31,0,0,0,5-31.83V698.76Zm197.27,72.91a82.53,82.53,0,0,0-6.36-32.53,76.76,76.76,0,0,0-18-26.13,83.58,83.58,0,0,0-27.8-17.32,97.13,97.13,0,0,0-35.46-6.25H932.67a12.71,12.71,0,0,0-9.63,4.7,12.4,12.4,0,0,0-2.59,5.19V844.94a9.86,9.86,0,0,0,7.34,9.56h50a96.36,96.36,0,0,0,35.46-6.36,85.75,85.75,0,0,0,27.8-17.42,76.79,76.79,0,0,0,18-26.27,83.37,83.37,0,0,0,6.36-32.63Zm-126.3,65.49V706.65h38.62a75.74,75.74,0,0,1,28.29,5.06,62.79,62.79,0,0,1,21.57,13.89,62,62,0,0,1,13.66,20.76,68,68,0,0,1,4.82,25.67,67.12,67.12,0,0,1-4.82,25.67,62.31,62.31,0,0,1-13.66,20.61,61.54,61.54,0,0,1-21.57,13.79,77.47,77.47,0,0,1-28.26,4.95Zm192.52.23v-57.6h81.5a8.49,8.49,0,1,0,.94-16.95h-82.44V706.41h92.09a8.49,8.49,0,1,0,0-17H1113.1v164.9H1225a8.49,8.49,0,1,0,.93-17,7.22,7.22,0,0,0-.93,0ZM569.33,706.65h46.72v138.4a9.32,9.32,0,0,0,18.61,0V706.65h46.72a8.62,8.62,0,0,0,0-17.21H569.25a8.62,8.62,0,0,0,0,17.21Zm-72-7.79V845.23a9.31,9.31,0,0,0,8.12,9.21h2.31a9.32,9.32,0,0,0,8.13-9.21V698.76a9.32,9.32,0,0,0-18.61-1,8.18,8.18,0,0,0,0,1Zm-165.79,7.79h46.72v138.4a9.3,9.3,0,0,0,18.59,0V706.65h46.72a8.62,8.62,0,0,0,0-17.21H331.41a8.62,8.62,0,0,0,0,17.21Zm-127.39-7.79V854.44H307a8.59,8.59,0,0,0,0-17.18H222.73V698.76a9.32,9.32,0,0,0-18.61-1,8.17,8.17,0,0,0,0,1Z"/><path class="cls-2" d="M640.11,241.06l-52.66,91.21-14.83,25.54-.49.86a42.49,42.49,0,0,0-.26,41.19l1,1.72,6.64,11.5,7.79,13.6,19.39,33.61H743.32l34.65-60a41.55,41.55,0,0,0,.6-41.89L729.9,274.08l-27.26,47.19,24.92,43.16c.29.47.55.94.81,1.4a27.32,27.32,0,0,1-.91,27.52l-11.4,19.73H634.12l-8.65-14.85c-.36-.62-.72-1.22-1.06-1.87a35.47,35.47,0,0,1,.28-34.08l50.88-88.1,16-27.67.34-.6a38.43,38.43,0,0,0-.52-38.75l-15.81-27.38-31.36-54.41-1.89-3.3a30.44,30.44,0,0,0-50.7,0l-1.92,3.3L528.86,230.78,501.61,278,471,330.92l-15.81,27.39-1.74,3a37,37,0,0,0-.8,32.22l3.53,6.1L464,413.08l7.06,12.25,20.19,35h54.51l-16.09-27.85L518.5,413.08l-9.24-16a39,39,0,0,1,.78-39.28l18.85-32.65L556.14,278l49.32-85.53a13.76,13.76,0,0,1,23,0l11.79,20.38A27.88,27.88,0,0,1,640.11,241.06Z"/><path class="cls-2" d="M616.75,0C773.81,0,901.13,127.32,901.13,284.38S773.81,568.76,616.75,568.76,332.37,441.44,332.37,284.38,459.69,0,616.75,0Zm0,19.93c-146,0-264.45,118.4-264.45,264.45S470.7,548.83,616.75,548.83,881.2,430.43,881.2,284.38,762.8,19.93,616.75,19.93Z"/></g></g></svg>