<?xml version="1.0" encoding="UTF-8" standalone="no"?>
<svg
   xmlns:dc="http://purl.org/dc/elements/1.1/"
   xmlns:cc="http://creativecommons.org/ns#"
   xmlns:rdf="http://www.w3.org/1999/02/22-rdf-syntax-ns#"
   xmlns:svg="http://www.w3.org/2000/svg"
   xmlns="http://www.w3.org/2000/svg"
   viewBox="0 0 1186.6667 366.66666"
   height="366.66666"
   width="1186.6667"
   xml:space="preserve"
   id="svg2"
   version="1.1"><metadata
     id="metadata8"><rdf:RDF><cc:Work
         rdf:about=""><dc:format>image/svg+xml</dc:format><dc:type
           rdf:resource="http://purl.org/dc/dcmitype/StillImage" /></cc:Work></rdf:RDF></metadata><defs
     id="defs6"><clipPath
       id="clipPath30"
       clipPathUnits="userSpaceOnUse"><path
         id="path28"
         d="m 609.761,90.673 h 7.526 v 84.888 h 26.133 v 6.445 h -59.929 v -6.445 h 26.27 z" /></clipPath><linearGradient
       id="linearGradient40"
       spreadMethod="pad"
       gradientTransform="matrix(59.928997,-91.333,59.928997,91.333,590.05853,192.01501)"
       gradientUnits="userSpaceOnUse"
       y2="0"
       x2="1"
       y1="0"
       x1="0"><stop
         id="stop36"
         offset="0"
         style="stop-opacity:1;stop-color:#fbc234" /><stop
         id="stop38"
         offset="1"
         style="stop-opacity:1;stop-color:#f35d22" /></linearGradient><clipPath
       id="clipPath50"
       clipPathUnits="userSpaceOnUse"><path
         id="path48"
         d="m 609.761,90.673 h 7.526 v 84.888 h 26.133 v 6.445 h -59.929 v -6.445 h 26.27 z" /></clipPath><clipPath
       id="clipPath58"
       clipPathUnits="userSpaceOnUse"><path
         id="path56"
         d="M -32768,32767 H 32767 V -32768 H -32768 Z" /></clipPath><radialGradient
       id="radialGradient64"
       spreadMethod="pad"
       gradientTransform="matrix(-23.247692,-35.429947,18.967674,-12.445689,643.44397,182.04254)"
       gradientUnits="userSpaceOnUse"
       r="1"
       cy="0"
       cx="0"
       fy="0"
       fx="0"><stop
         id="stop60"
         offset="0"
         style="stop-opacity:1;stop-color:#ffffff" /><stop
         id="stop62"
         offset="1"
         style="stop-opacity:0;stop-color:#ffffff" /></radialGradient><mask
       id="mask66"
       height="1"
       width="1"
       y="0"
       x="0"
       maskUnits="userSpaceOnUse"><g
         id="g76"><g
           id="g74"
           clip-path="url(#clipPath58)"><g
             id="g72"><g
               id="g70"><path
                 id="path68"
                 style="fill:url(#radialGradient64);stroke:none"
                 d="M -32768,32767 H 32767 V -32768 H -32768 Z" /></g></g></g></g></mask><radialGradient
       id="radialGradient86"
       spreadMethod="pad"
       gradientTransform="matrix(-23.247692,-35.429947,18.967674,-12.445689,643.44397,182.04254)"
       gradientUnits="userSpaceOnUse"
       r="1"
       cy="0"
       cx="0"
       fy="0"
       fx="0"><stop
         id="stop82"
         offset="0"
         style="stop-opacity:1;stop-color:#fbc436" /><stop
         id="stop84"
         offset="1"
         style="stop-opacity:1;stop-color:#fbc436" /></radialGradient><clipPath
       id="clipPath96"
       clipPathUnits="userSpaceOnUse"><path
         id="path94"
         d="m 659.976,90.673 h 45.7 v 6.445 h -38.174 v 39.084 h 32.701 v 6.446 h -32.701 v 32.913 h 37.216 v 6.445 h -44.742 z" /></clipPath><linearGradient
       id="linearGradient106"
       spreadMethod="pad"
       gradientTransform="matrix(45.700005,-91.333,45.700005,91.333,659.73651,181.52736)"
       gradientUnits="userSpaceOnUse"
       y2="0"
       x2="1"
       y1="0"
       x1="0"><stop
         id="stop102"
         offset="0"
         style="stop-opacity:1;stop-color:#fbc234" /><stop
         id="stop104"
         offset="1"
         style="stop-opacity:1;stop-color:#f35d22" /></linearGradient><clipPath
       id="clipPath116"
       clipPathUnits="userSpaceOnUse"><path
         id="path114"
         d="m 659.976,90.673 h 45.7 v 6.445 h -38.174 v 39.084 h 32.701 v 6.446 h -32.701 v 32.913 h 37.216 v 6.445 h -44.742 z" /></clipPath><clipPath
       id="clipPath124"
       clipPathUnits="userSpaceOnUse"><path
         id="path122"
         d="M -32768,32767 H 32767 V -32768 H -32768 Z" /></clipPath><radialGradient
       id="radialGradient130"
       spreadMethod="pad"
       gradientTransform="matrix(-14.459962,-28.898722,15.471419,-7.7408552,705.65454,181.96309)"
       gradientUnits="userSpaceOnUse"
       r="1"
       cy="0"
       cx="0"
       fy="0"
       fx="0"><stop
         id="stop126"
         offset="0"
         style="stop-opacity:1;stop-color:#ffffff" /><stop
         id="stop128"
         offset="1"
         style="stop-opacity:0;stop-color:#ffffff" /></radialGradient><mask
       id="mask132"
       height="1"
       width="1"
       y="0"
       x="0"
       maskUnits="userSpaceOnUse"><g
         id="g142"><g
           id="g140"
           clip-path="url(#clipPath124)"><g
             id="g138"><g
               id="g136"><path
                 id="path134"
                 style="fill:url(#radialGradient130);stroke:none"
                 d="M -32768,32767 H 32767 V -32768 H -32768 Z" /></g></g></g></g></mask><radialGradient
       id="radialGradient152"
       spreadMethod="pad"
       gradientTransform="matrix(-14.459962,-28.898722,15.471419,-7.7408552,705.65454,181.96309)"
       gradientUnits="userSpaceOnUse"
       r="1"
       cy="0"
       cx="0"
       fy="0"
       fx="0"><stop
         id="stop148"
         offset="0"
         style="stop-opacity:1;stop-color:#fbc436" /><stop
         id="stop150"
         offset="1"
         style="stop-opacity:1;stop-color:#fbc436" /></radialGradient><clipPath
       id="clipPath162"
       clipPathUnits="userSpaceOnUse"><path
         id="path160"
         d="m 721.137,136.477 c 0,-25.096 16.282,-47.313 43.647,-47.313 v 0 c 11.904,0 21.345,4.115 26.818,9.051 v 0 l -3.693,5.349 C 782.298,98.763 774.772,95.61 765.058,95.61 v 0 c -23.26,0 -36.122,19.473 -36.122,41.141 v 0 c 0,21.393 12.999,40.455 35.848,40.455 v 0 c 8.483,0 15.325,-2.331 20.798,-6.17 v 0 l 3.831,5.759 c -6.431,4.252 -13.956,6.72 -24.355,6.72 v 0 c -27.365,0 -43.921,-22.216 -43.921,-47.038" /></clipPath><linearGradient
       id="linearGradient172"
       spreadMethod="pad"
       gradientTransform="matrix(70.465164,-94.350899,70.465164,94.350899,724.85266,188.48991)"
       gradientUnits="userSpaceOnUse"
       y2="0"
       x2="1"
       y1="0"
       x1="0"><stop
         id="stop168"
         offset="0"
         style="stop-opacity:1;stop-color:#fbc234" /><stop
         id="stop170"
         offset="1"
         style="stop-opacity:1;stop-color:#f35d22" /></linearGradient><clipPath
       id="clipPath182"
       clipPathUnits="userSpaceOnUse"><path
         id="path180"
         d="m 721.137,136.477 c 0,-25.096 16.282,-47.313 43.647,-47.313 v 0 c 11.904,0 21.345,4.115 26.818,9.051 v 0 l -3.693,5.349 C 782.298,98.763 774.772,95.61 765.058,95.61 v 0 c -23.26,0 -36.122,19.473 -36.122,41.141 v 0 c 0,21.393 12.999,40.455 35.848,40.455 v 0 c 8.483,0 15.325,-2.331 20.798,-6.17 v 0 l 3.831,5.759 c -6.431,4.252 -13.956,6.72 -24.355,6.72 v 0 c -27.365,0 -43.921,-22.216 -43.921,-47.038" /></clipPath><clipPath
       id="clipPath190"
       clipPathUnits="userSpaceOnUse"><path
         id="path188"
         d="M -32768,32767 H 32767 V -32768 H -32768 Z" /></clipPath><radialGradient
       id="radialGradient196"
       spreadMethod="pad"
       gradientTransform="matrix(-29.815256,-39.921799,21.372133,-15.961913,791.57556,183.47914)"
       gradientUnits="userSpaceOnUse"
       r="1"
       cy="0"
       cx="0"
       fy="0"
       fx="0"><stop
         id="stop192"
         offset="0"
         style="stop-opacity:1;stop-color:#ffffff" /><stop
         id="stop194"
         offset="1"
         style="stop-opacity:0;stop-color:#ffffff" /></radialGradient><mask
       id="mask198"
       height="1"
       width="1"
       y="0"
       x="0"
       maskUnits="userSpaceOnUse"><g
         id="g208"><g
           id="g206"
           clip-path="url(#clipPath190)"><g
             id="g204"><g
               id="g202"><path
                 id="path200"
                 style="fill:url(#radialGradient196);stroke:none"
                 d="M -32768,32767 H 32767 V -32768 H -32768 Z" /></g></g></g></g></mask><radialGradient
       id="radialGradient218"
       spreadMethod="pad"
       gradientTransform="matrix(-29.815256,-39.921799,21.372133,-15.961913,791.57556,183.47914)"
       gradientUnits="userSpaceOnUse"
       r="1"
       cy="0"
       cx="0"
       fy="0"
       fx="0"><stop
         id="stop214"
         offset="0"
         style="stop-opacity:1;stop-color:#fbc436" /><stop
         id="stop216"
         offset="1"
         style="stop-opacity:1;stop-color:#fbc436" /></radialGradient><clipPath
       id="clipPath228"
       clipPathUnits="userSpaceOnUse"><path
         id="path226"
         d="m 873.971,182.006 v -39.77 h -55.552 v 39.77 h -7.524 V 90.673 h 7.524 v 45.118 h 55.552 V 90.673 h 7.526 v 91.333 z" /></clipPath><linearGradient
       id="linearGradient238"
       spreadMethod="pad"
       gradientTransform="matrix(70.602005,-91.333,70.602005,91.333,810.89502,182.00601)"
       gradientUnits="userSpaceOnUse"
       y2="0"
       x2="1"
       y1="0"
       x1="0"><stop
         id="stop234"
         offset="0"
         style="stop-opacity:1;stop-color:#fbc234" /><stop
         id="stop236"
         offset="1"
         style="stop-opacity:1;stop-color:#f35d22" /></linearGradient><clipPath
       id="clipPath248"
       clipPathUnits="userSpaceOnUse"><path
         id="path246"
         d="m 873.971,182.006 v -39.77 h -55.552 v 39.77 h -7.524 V 90.673 h 7.524 v 45.118 h 55.552 V 90.673 h 7.526 v 91.333 z" /></clipPath><clipPath
       id="clipPath256"
       clipPathUnits="userSpaceOnUse"><path
         id="path254"
         d="M -32768,32767 H 32767 V -32768 H -32768 Z" /></clipPath><radialGradient
       id="radialGradient262"
       spreadMethod="pad"
       gradientTransform="matrix(-30.532644,-39.498001,21.14555,-16.345827,881.52594,182.04346)"
       gradientUnits="userSpaceOnUse"
       r="1"
       cy="0"
       cx="0"
       fy="0"
       fx="0"><stop
         id="stop258"
         offset="0"
         style="stop-opacity:1;stop-color:#ffffff" /><stop
         id="stop260"
         offset="1"
         style="stop-opacity:0;stop-color:#ffffff" /></radialGradient><mask
       id="mask264"
       height="1"
       width="1"
       y="0"
       x="0"
       maskUnits="userSpaceOnUse"><g
         id="g274"><g
           id="g272"
           clip-path="url(#clipPath256)"><g
             id="g270"><g
               id="g268"><path
                 id="path266"
                 style="fill:url(#radialGradient262);stroke:none"
                 d="M -32768,32767 H 32767 V -32768 H -32768 Z" /></g></g></g></g></mask><radialGradient
       id="radialGradient284"
       spreadMethod="pad"
       gradientTransform="matrix(-30.532644,-39.498001,21.14555,-16.345827,881.52594,182.04346)"
       gradientUnits="userSpaceOnUse"
       r="1"
       cy="0"
       cx="0"
       fy="0"
       fx="0"><stop
         id="stop280"
         offset="0"
         style="stop-opacity:1;stop-color:#fbc436" /><stop
         id="stop282"
         offset="1"
         style="stop-opacity:1;stop-color:#fbc436" /></radialGradient><clipPath
       id="clipPath294"
       clipPathUnits="userSpaceOnUse"><path
         id="path292"
         d="M 0,275 H 890 V 0 H 0 Z" /></clipPath></defs><g
     transform="matrix(1.3333333,0,0,-1.3333333,0,366.66667)"
     id="g10"><g
       transform="translate(0,89.7633)"
       id="g12"><path
         id="path14"
         style="fill:#0f161d;fill-opacity:1;fill-rule:nonzero;stroke:none"
         d="M 0,0 130,-89.763 260,0 130,89.765 Z M 12.239,0 130,81.314 247.761,0 130,-81.313 Z" /></g><g
       transform="translate(0,135.4248)"
       id="g16"><path
         id="path18"
         style="fill:#0f161d;fill-opacity:1;fill-rule:nonzero;stroke:none"
         d="M 0,0 130,-89.764 260,0 130,89.763 Z M 24.543,0 130,72.817 235.457,0 130,-72.817 Z" /></g><g
       transform="translate(129.9996,275.0004)"
       id="g20"><path
         id="path22"
         style="fill:#0f161d;fill-opacity:1;fill-rule:nonzero;stroke:none"
         d="M 0,0 -130,-89.764 0,-179.528 130.001,-89.764 Z M -93.095,-89.764 0,-25.483 93.096,-89.764 0,-154.047 Z" /></g><g
       id="g24"><g
         clip-path="url(#clipPath30)"
         id="g26"><g
           id="g32"><g
             id="g34"><path
               id="path42"
               style="fill:url(#linearGradient40);stroke:none"
               d="m 609.761,90.673 h 7.526 v 84.888 h 26.133 v 6.445 h -59.929 v -6.445 h 26.27 z" /></g></g></g></g><g
       id="g44"><g
         clip-path="url(#clipPath50)"
         id="g46"><g
           id="g52"><g
             id="g54" /><g
             mask="url(#mask66)"
             id="g78"><g
               id="g80"><path
                 id="path88"
                 style="fill:url(#radialGradient86);stroke:none"
                 d="m 609.761,90.673 h 7.526 v 84.888 h 26.133 v 6.445 h -59.929 v -6.445 h 26.27 z" /></g></g></g></g></g><g
       id="g90"><g
         clip-path="url(#clipPath96)"
         id="g92"><g
           id="g98"><g
             id="g100"><path
               id="path108"
               style="fill:url(#linearGradient106);stroke:none"
               d="m 659.976,90.673 h 45.7 v 6.445 h -38.174 v 39.084 h 32.701 v 6.446 h -32.701 v 32.913 h 37.216 v 6.445 h -44.742 z" /></g></g></g></g><g
       id="g110"><g
         clip-path="url(#clipPath116)"
         id="g112"><g
           id="g118"><g
             id="g120" /><g
             mask="url(#mask132)"
             id="g144"><g
               id="g146"><path
                 id="path154"
                 style="fill:url(#radialGradient152);stroke:none"
                 d="m 659.976,90.673 h 45.7 v 6.445 h -38.174 v 39.084 h 32.701 v 6.446 h -32.701 v 32.913 h 37.216 v 6.445 h -44.742 z" /></g></g></g></g></g><g
       id="g156"><g
         clip-path="url(#clipPath162)"
         id="g158"><g
           id="g164"><g
             id="g166"><path
               id="path174"
               style="fill:url(#linearGradient172);stroke:none"
               d="m 721.137,136.477 c 0,-25.096 16.282,-47.313 43.647,-47.313 v 0 c 11.904,0 21.345,4.115 26.818,9.051 v 0 l -3.693,5.349 C 782.298,98.763 774.772,95.61 765.058,95.61 v 0 c -23.26,0 -36.122,19.473 -36.122,41.141 v 0 c 0,21.393 12.999,40.455 35.848,40.455 v 0 c 8.483,0 15.325,-2.331 20.798,-6.17 v 0 l 3.831,5.759 c -6.431,4.252 -13.956,6.72 -24.355,6.72 v 0 c -27.365,0 -43.921,-22.216 -43.921,-47.038" /></g></g></g></g><g
       id="g176"><g
         clip-path="url(#clipPath182)"
         id="g178"><g
           id="g184"><g
             id="g186" /><g
             mask="url(#mask198)"
             id="g210"><g
               id="g212"><path
                 id="path220"
                 style="fill:url(#radialGradient218);stroke:none"
                 d="m 721.137,136.477 c 0,-25.096 16.282,-47.313 43.647,-47.313 v 0 c 11.904,0 21.345,4.115 26.818,9.051 v 0 l -3.693,5.349 C 782.298,98.763 774.772,95.61 765.058,95.61 v 0 c -23.26,0 -36.122,19.473 -36.122,41.141 v 0 c 0,21.393 12.999,40.455 35.848,40.455 v 0 c 8.483,0 15.325,-2.331 20.798,-6.17 v 0 l 3.831,5.759 c -6.431,4.252 -13.956,6.72 -24.355,6.72 v 0 c -27.365,0 -43.921,-22.216 -43.921,-47.038" /></g></g></g></g></g><g
       id="g222"><g
         clip-path="url(#clipPath228)"
         id="g224"><g
           id="g230"><g
             id="g232"><path
               id="path240"
               style="fill:url(#linearGradient238);stroke:none"
               d="m 873.971,182.006 v -39.77 h -55.552 v 39.77 h -7.524 V 90.673 h 7.524 v 45.118 h 55.552 V 90.673 h 7.526 v 91.333 z" /></g></g></g></g><g
       id="g242"><g
         clip-path="url(#clipPath248)"
         id="g244"><g
           id="g250"><g
             id="g252" /><g
             mask="url(#mask264)"
             id="g276"><g
               id="g278"><path
                 id="path286"
                 style="fill:url(#radialGradient284);stroke:none"
                 d="m 873.971,182.006 v -39.77 h -55.552 v 39.77 h -7.524 V 90.673 h 7.524 v 45.118 h 55.552 V 90.673 h 7.526 v 91.333 z" /></g></g></g></g></g><g
       id="g288"><g
         clip-path="url(#clipPath294)"
         id="g290"><g
           transform="translate(542.4434,89.0264)"
           id="g296"><path
             id="path298"
             style="fill:#0f161d;fill-opacity:1;fill-rule:nonzero;stroke:none"
             d="m 0,0 c 20.25,0 32.701,10.56 32.701,27.153 0,16.868 -11.356,23.04 -23.397,28.525 -9.577,4.389 -16.829,6.72 -16.829,13.851 0,6.172 4.789,9.463 12.177,9.463 7.799,0 14.64,-3.566 17.787,-5.623 l 7.799,13.577 c -3.831,2.88 -11.766,7.679 -26.68,7.679 -16.283,0 -29.418,-9.736 -29.418,-25.37 0,-14.811 8.346,-21.805 19.566,-27.29 10.672,-5.349 20.387,-7.68 20.387,-15.772 0,-5.896 -5.336,-10.559 -14.503,-10.559 -10.536,0 -17.514,5.348 -19.567,6.857 L -28.187,9.052 C -24.218,5.76 -14.777,0 0,0 m -82.779,48.821 h 8.62 c 12.177,0 17.377,4.937 17.377,15.086 0,9.188 -5.064,14.262 -16.967,14.262 h -9.03 z M -102.209,1.646 V 92.98 h 29.965 c 19.84,0 34.89,-9.188 34.89,-28.799 0,-19.885 -14.366,-30.034 -37.08,-30.034 h -8.345 V 1.646 Z m -43.237,0 h 19.292 V 92.98 h -19.292 z m -66.36,51.29 h 10.535 c 10.262,0 15.051,4.662 15.051,12.616 0,8.365 -4.789,12.617 -15.871,12.617 h -9.715 z M -231.099,1.646 V 92.98 h 30.376 c 21.345,0 33.659,-9.188 33.659,-26.331 0,-14.948 -10.125,-22.49 -21.208,-24.547 v -0.275 c 2.463,-1.782 5.747,-5.348 10.672,-13.027 l 17.788,-27.154 h -21.209 l -16.692,26.056 c -7.115,10.56 -8.62,11.52 -12.862,11.52 h -1.231 V 1.646 Z" /></g></g></g></g></svg>