<?xml version="1.0" encoding="UTF-8" standalone="no"?>
<svg
   xmlns:dc="http://purl.org/dc/elements/1.1/"
   xmlns:cc="http://creativecommons.org/ns#"
   xmlns:rdf="http://www.w3.org/1999/02/22-rdf-syntax-ns#"
   xmlns:svg="http://www.w3.org/2000/svg"
   xmlns="http://www.w3.org/2000/svg"
   viewBox="0 0 1178.6667 816"
   height="816"
   width="1178.6667"
   xml:space="preserve"
   id="svg2"
   version="1.1"><metadata
     id="metadata8"><rdf:RDF><cc:Work
         rdf:about=""><dc:format>image/svg+xml</dc:format><dc:type
           rdf:resource="http://purl.org/dc/dcmitype/StillImage" /></cc:Work></rdf:RDF></metadata><defs
     id="defs6"><clipPath
       id="clipPath18"
       clipPathUnits="userSpaceOnUse"><path
         id="path16"
         d="M 0,612 H 884 V 0 H 0 Z" /></clipPath></defs><g
     transform="matrix(1.3333333,0,0,-1.3333333,0,816)"
     id="g10"><g
       id="g12"><g
         clip-path="url(#clipPath18)"
         id="g14"><g
           transform="translate(288.805,348.0299)"
           id="g20"><path
             id="path22"
             style="fill:#000000;fill-opacity:1;fill-rule:nonzero;stroke:none"
             d="m 0,0 c -1.785,-6.23 -3.399,-11.812 -4.981,-17.402 -1.783,-6.3 -3.597,-12.593 -5.237,-18.93 -0.247,-0.955 0.037,-2.426 0.659,-3.17 6.505,-7.778 13.139,-15.449 19.717,-23.165 6.677,-7.832 9.984,-16.938 10.018,-27.198 0.053,-15.738 -12.963,-21.095 -12.963,-36.834 0,-0.859 0,-1.717 0,-2.73 l -26.361,-9.733 v 2.824 c 0,15.564 16.833,30.479 16.892,46.042 0.018,4.905 -1.355,8.682 -5.592,11.88 -9.553,7.21 -18.709,14.95 -27.958,22.556 -8.978,7.383 -11.411,16.005 -8.125,27.141 3.977,13.48 7.825,26.999 11.626,40.53 2.151,7.66 4.094,15.379 6.064,22.82 0.677,0.174 0.86,0.288 0.998,0.248 12.869,-3.802 26.25,-6.491 36.792,-15.653 4.677,-4.065 9.073,-8.467 13.432,-12.879 2.076,-2.101 4.256,-2.739 7.093,-2.135 7.166,1.524 14.362,2.912 21.695,4.384 L 58.28,27.742 H 69.222 L 48.458,-124.053 H 37.595 l 16.252,109.828 c -5.623,-1.13 -10.906,-2.158 -16.175,-3.258 -8.37,-1.747 -16.49,-1.345 -23.561,3.9 C 10.279,-10.741 7.03,-7.109 3.554,-3.795 2.431,-2.724 1.425,-1.53 0,0" /></g><g
           transform="translate(149.7801,340.9612)"
           id="g24"><path
             id="path26"
             style="fill:#000000;fill-opacity:1;fill-rule:nonzero;stroke:none"
             d="m 0,0 c 0.429,4.543 -1.31,7.016 -4.339,7.296 -3.459,0.32 -5.702,-1.651 -5.92,-5.206 -0.102,-1.664 0.614,-1.954 1.979,-1.389 0.269,2.035 0.249,4.233 2.975,4.456 C -2.592,5.38 -2.107,3.501 -1.784,1.37 -1.717,0.93 -0.833,0.613 0,0 m 96.214,43.088 c -0.01,2.503 -0.712,4.724 -2.73,5.897 -1.892,1.1 -4.404,1.08 -5.941,-0.555 -1.183,-1.259 -1.496,-3.334 -2.197,-5.047 0.436,-0.223 0.872,-0.446 1.308,-0.669 0.404,0.623 1.028,1.2 1.169,1.878 0.37,1.784 1.14,2.652 3.146,2.607 2.962,-0.066 2.361,-2.393 2.877,-4.111 z M 59.567,86.605 c -0.265,1.295 -0.383,2.319 -0.689,3.284 -0.761,2.398 -3.441,3.89 -5.982,3.414 -2.302,-0.432 -4.134,-2.884 -3.8,-5.373 0.079,-0.595 0.895,-1.091 1.372,-1.633 0.214,0.143 0.427,0.286 0.64,0.428 -0.231,2.034 0.167,3.894 2.345,4.307 3.592,0.682 3.256,-2.336 3.662,-4.427 z m 9.266,-89.197 c 0.5,3.504 0.027,6.46 -2.97,8.236 -2.514,1.489 -5.341,1.575 -7.75,-0.169 -2.626,-1.903 -3.197,-4.853 -3.285,-8.021 h 3.08 c -0.088,2.683 0.422,5.17 3.212,5.833 4.911,1.167 5.17,-2.504 5.406,-5.879 z M 6.019,58.782 c -0.36,3.65 -0.875,6.974 -4.586,8.4 -2.64,1.014 -5.405,0.82 -7.532,-1.051 -2.115,-1.861 -2.982,-4.439 -2.417,-7.32 h 2.741 c 0.631,4.709 1.299,5.597 4.179,5.651 3.125,0.059 3.835,-0.775 4.792,-5.68 z m 47.992,15.125 c 1.743,0 3.495,0.104 5.229,-0.027 2.106,-0.159 2.785,1.065 2.883,2.785 0.109,1.912 -0.067,3.84 0.052,5.751 0.158,2.553 -1.406,3.421 -3.478,3.518 -3.132,0.146 -6.281,0.148 -9.412,-10e-4 -2.099,-0.1 -3.58,-1.061 -3.422,-3.574 0.12,-1.911 0.058,-3.836 0.015,-5.753 -0.041,-1.839 0.772,-2.739 2.64,-2.706 1.83,0.033 3.662,0.007 5.493,0.007 m 36.95,-32.006 c -1.924,0 -3.848,-0.017 -5.771,0.005 -1.714,0.02 -2.592,-0.758 -2.579,-2.509 0.017,-2.186 -0.023,-4.372 0.012,-6.558 0.03,-1.865 1.098,-2.925 2.888,-2.974 3.495,-0.096 7.014,-0.236 10.48,0.099 1.036,0.1 2.531,1.587 2.756,2.66 0.438,2.095 0.21,4.35 0.101,6.53 -0.086,1.733 -0.795,2.948 -2.906,2.775 -1.65,-0.136 -3.32,-0.027 -4.981,-0.028 M -4.919,-0.073 c -1.835,0 -3.671,0.041 -5.504,-0.011 -1.845,-0.053 -2.975,-1.109 -2.945,-2.908 0.137,-8.32 -1.832,-9.434 8.329,-9.147 0.174,0.005 0.349,0 0.524,0 8.093,0 8.093,0 7.904,8.11 -0.004,0.175 0.019,0.353 -0.005,0.524 -0.297,2.079 -1.043,3.635 -3.585,3.454 -1.565,-0.111 -3.145,-0.02 -4.718,-0.022 m 67.345,-3.673 c -2.619,0 -5.245,0.115 -7.855,-0.037 -2.084,-0.121 -3.576,-0.999 -3.468,-3.544 0.13,-3.05 0.012,-6.11 0.036,-9.165 0.021,-2.599 1.25,-3.959 3.933,-4.013 4.712,-0.094 9.429,-0.096 14.141,0 2.843,0.057 4.389,1.477 4.46,3.952 0.084,2.966 0.091,5.938 -0.003,8.904 -0.077,2.411 -1.741,3.887 -4.173,3.902 -2.357,0.014 -4.714,0.003 -7.071,10e-4 M -1.376,57.641 c -2.446,0 -4.893,0.046 -7.337,-0.012 -2.476,-0.059 -4.081,-1.587 -4.143,-4.009 -0.076,-2.967 -0.116,-5.943 0.015,-8.907 0.1,-2.284 1.485,-3.762 3.767,-3.818 5.15,-0.126 10.308,-0.128 15.458,0.006 1.97,0.051 3.399,1.018 3.325,3.41 C 9.611,47.452 9.714,50.6 9.676,53.744 9.642,56.536 8.541,57.6 5.699,57.636 3.341,57.665 0.982,57.642 -1.376,57.641 M 10.375,3.471 c 1.296,-4.499 1.285,-4.557 3.954,-5.042 1.69,-0.307 3.423,-0.365 5.126,-0.607 5.517,-0.781 11.04,-1.537 16.539,-2.434 1.598,-0.261 2.184,-0.056 2.635,1.717 2.077,8.171 7.054,13.972 15.023,16.922 5.023,1.859 10.17,2.091 15.342,0.37 0.597,-0.199 1.688,-0.159 1.997,0.22 2.954,3.632 5.789,7.361 8.617,11.01 -4.25,4.621 -4.176,4.445 -9.669,2.13 C 58.058,22.751 46.1,17.926 34.16,13.06 26.261,9.841 18.339,6.68 10.375,3.471 M 39.636,73.426 C 34.117,69.543 28.574,65.692 23.115,61.725 22.596,61.348 22.35,60.22 22.42,59.482 c 0.158,-1.688 0.5,-3.376 0.96,-5.01 0.168,-0.594 0.82,-1.387 1.364,-1.488 6.98,-1.307 13.982,-2.494 20.975,-3.731 8.756,-1.55 17.505,-3.136 26.263,-4.664 1.568,-0.274 3.01,-0.363 3.769,1.703 0.542,1.474 1.718,2.715 2.694,4.185 -2.586,2.952 -5.216,5.92 -7.806,8.922 C 68.05,62.4 65.502,65.437 62.94,68.462 57.037,64.548 46.107,64.297 39.636,73.426 M 22.632,46.583 C 19.321,36.927 12.856,31.146 2.924,29.236 2.286,29.113 1.463,28.061 1.36,27.349 0.65,22.456 0.109,17.538 -0.382,13.488 2.432,11.423 4.772,9.627 7.206,7.97 7.934,7.475 9.115,6.899 9.771,7.159 c 11.341,4.506 22.634,9.135 33.936,13.74 10.107,4.119 20.213,8.243 30.584,12.472 -0.224,1.305 -0.464,2.707 -0.709,4.136 -17.002,3.029 -33.91,6.041 -50.95,9.076 M 85.395,22.118 C 82.531,18.447 79.524,14.593 76.703,10.977 78.931,8.001 81.68,5.321 83.231,2.07 c 4.376,-9.17 3.377,-17.937 -3.149,-25.948 -4.904,-6.019 -11.474,-8.901 -18.914,-8.589 -10.969,0.461 -19.761,7.079 -22.596,18.642 -0.312,1.271 -0.565,2.106 -2.156,2.299 -4.502,0.546 -8.975,1.33 -13.462,2.009 -3.051,0.462 -6.12,0.828 -9.153,1.39 -1.64,0.304 -2.469,0.235 -3.288,-1.664 -4.796,-11.127 -18.618,-13.818 -27.161,-5.504 -4.448,4.329 -6.296,9.971 -4.351,16.271 2.016,6.531 6.382,10.595 13.089,12.085 0.233,0.052 0.456,0.146 0.643,0.207 0.62,4.959 1.102,9.84 1.915,14.666 0.224,1.334 0.041,1.599 -1.124,1.921 -11.931,3.297 -19.379,13.876 -17.868,26.126 1.288,10.435 9.464,19.149 20.229,20.633 8.054,1.11 14.685,-1.382 20.484,-6.601 1.683,-1.514 2.838,-3.617 4.326,-5.569 5.471,3.851 11.067,7.631 16.416,11.734 0.748,0.573 0.505,2.76 0.337,4.154 -0.839,6.959 1.692,12.264 7.468,16.163 6.804,4.591 16.476,3.17 21.86,-3.384 5.122,-6.234 5.21,-15.326 -0.518,-21.672 -0.167,-0.185 -0.281,-0.417 -0.477,-0.715 3.604,-4.192 7.202,-8.367 10.786,-12.553 0.727,-0.848 1.393,-1.747 2.107,-2.606 1.548,-1.862 2.85,-2.891 5.799,-1.671 9.342,3.864 20.236,-1.581 22.302,-12.427 1.79,-9.392 -4.801,-17.828 -12.79,-19.27 -2.743,-0.496 -5.651,-0.079 -8.59,-0.079" /></g><g
           transform="translate(388.1728,344.2856)"
           id="g28"><path
             id="path30"
             style="fill:#000000;fill-opacity:1;fill-rule:nonzero;stroke:none"
             d="m 0,0 c 4.66,4.416 8.57,8.121 12.593,11.934 4.266,-5.41 9.655,-7.327 16.099,-5.599 1.865,0.5 3.775,1.516 5.207,2.804 3.062,2.755 2.636,6.897 -0.816,9.077 -1.753,1.107 -3.716,1.92 -5.656,2.683 -2.352,0.926 -4.79,1.633 -7.173,2.482 -12.22,4.356 -15.094,13.254 -9.304,25.116 2.896,5.933 8.032,9.573 14.153,11.79 7.481,2.71 15.108,2.923 22.62,0.378 3.049,-1.033 5.779,-3.009 9.16,-4.827 -4.346,-4.156 -8.099,-7.745 -11.911,-11.389 -4.134,4.053 -8.984,5.181 -14.295,3.658 -1.923,-0.551 -3.882,-1.707 -5.303,-3.114 -2.64,-2.616 -2.06,-6.557 1.114,-8.521 1.683,-1.041 3.618,-1.705 5.494,-2.392 2.537,-0.93 5.168,-1.609 7.685,-2.586 C 49.735,27.588 52.926,21.213 50.069,10.787 47.987,3.19 43.12,-2.094 35.984,-5.112 27.54,-8.682 18.789,-9.117 10.179,-5.841 6.764,-4.542 3.749,-2.194 0,0" /></g><g
           transform="translate(698.5496,383.5087)"
           id="g32"><path
             id="path34"
             style="fill:#000000;fill-opacity:1;fill-rule:nonzero;stroke:none"
             d="m 0,0 h 15.272 c 2.478,-9.839 4.964,-19.703 7.591,-30.134 0.607,1.15 1.011,1.857 1.361,2.59 4.053,8.505 8.138,16.996 12.109,25.539 0.726,1.561 1.544,2.2 3.33,2.128 3.916,-0.16 7.844,-0.05 12.085,-0.05 -0.427,-0.93 -0.707,-1.631 -1.06,-2.293 -9.442,-17.71 -18.888,-35.418 -28.346,-53.119 -0.822,-1.538 -1.685,-3.059 -2.613,-4.536 -2.812,-4.477 -6.822,-7.095 -12.093,-7.846 -5.352,-0.762 -10.581,-0.545 -15.84,1.394 1.157,3.878 2.269,7.604 3.331,11.162 2.684,-0.316 5.079,-0.799 7.479,-0.832 3.276,-0.044 5.725,1.55 7.653,4.269 2.576,3.631 3.301,7.04 1.802,11.596 C 7.732,-26.976 4.04,-13.611 0,0" /></g><g
           transform="translate(695.2123,254.4235)"
           id="g36"><path
             id="path38"
             style="fill:#000000;fill-opacity:1;fill-rule:nonzero;stroke:none"
             d="m 0,0 c 1.162,2.398 2.038,4.177 2.89,5.967 3.525,7.404 7.084,14.792 10.531,22.232 0.709,1.53 1.47,2.261 3.295,2.181 3.918,-0.172 7.85,-0.053 12.003,-0.053 C 28.497,29.684 28.398,29.198 28.175,28.779 18.282,10.222 8.377,-8.329 -1.521,-26.883 -4.069,-31.66 -7.35,-35.61 -12.908,-36.966 c -6.079,-1.482 -12.077,-1.247 -18.193,0.859 1.154,3.883 2.261,7.609 3.341,11.246 2.456,-0.337 4.668,-0.816 6.897,-0.906 3.705,-0.15 6.349,1.612 8.511,4.67 2.524,3.571 2.877,6.92 1.506,11.159 -4.025,12.443 -7.572,25.041 -11.295,37.581 -0.243,0.817 -0.402,1.659 -0.627,2.603 H -7.624 C -5.155,20.45 -2.67,10.593 0,0" /></g><g
           transform="translate(264.3094,409.4214)"
           id="g40"><path
             id="path42"
             style="fill:#000000;fill-opacity:1;fill-rule:nonzero;stroke:none"
             d="M 0,0 C -0.004,12.489 9.756,22.301 22.206,22.324 34.763,22.347 44.728,12.419 44.685,-0.072 44.643,-12.35 34.553,-22.38 22.263,-22.361 9.904,-22.341 0.004,-12.398 0,0" /></g><g
           transform="translate(428.1789,260.1111)"
           id="g44"><path
             id="path46"
             style="fill:#000000;fill-opacity:1;fill-rule:nonzero;stroke:none"
             d="M 0,0 C -0.049,-5.986 3.477,-9.434 9.673,-9.459 17.431,-9.49 22.935,-3.784 22.927,4.28 22.922,10.032 19.316,13.531 13.312,13.613 5.501,13.72 0.067,8.163 0,0 M -14.268,-1.087 C -13.646,20.42 8.549,30.906 24.996,24.239 34.462,20.402 38.898,11.134 36.633,0.311 33.081,-16.666 13.901,-26.771 -2.157,-20.127 c -7.853,3.249 -12.334,10.293 -12.111,19.04" /></g><g
           transform="translate(246.3151,279.6152)"
           id="g48"><path
             id="path50"
             style="fill:#000000;fill-opacity:1;fill-rule:nonzero;stroke:none"
             d="m 0,0 c 5.928,-5.199 11.519,-10.055 17.016,-15.014 0.443,-0.4 0.536,-1.616 0.3,-2.277 -6.218,-17.423 -17.352,-48.224 -23.697,-65.6 -0.307,-0.839 -1.414,-1.956 -2.169,-1.971 -7.156,-0.15 -17.561,-5.93 -25.267,-5.93 C -25.237,-66.905 -8.654,-24.093 0,0" /></g><g
           transform="translate(633.4204,266.9119)"
           id="g52"><path
             id="path54"
             style="fill:#000000;fill-opacity:1;fill-rule:nonzero;stroke:none"
             d="m 0,0 h 9.348 9.035 C 18.79,5.324 16.379,8.816 12.179,9.383 6.607,10.135 1.07,5.991 0,0 M 31.58,-9.439 H -1.36 c 0.307,-3.638 1.821,-6.291 5.059,-7.54 6.071,-2.34 10.874,0.11 15.228,4.68 2.922,-2.409 5.786,-4.769 8.644,-7.125 -7.97,-10.363 -25.996,-12.527 -35.846,-4.472 -6.682,5.465 -8.817,14.931 -5.52,24.473 4.521,13.081 19.622,21.398 33.091,18.227 8.377,-1.972 13.423,-9.322 13.111,-19.301 -0.09,-2.869 -0.519,-5.726 -0.827,-8.942" /></g><g
           transform="translate(478.2634,365.8738)"
           id="g56"><path
             id="path58"
             style="fill:#000000;fill-opacity:1;fill-rule:nonzero;stroke:none"
             d="M 0,0 C 0.743,4.83 -1.697,8.568 -5.92,9.232 -11.561,10.118 -17.416,5.747 -18.188,0 Z m 13.351,-9.511 h -32.966 c 0.277,-3.527 1.711,-5.999 4.704,-7.465 4.566,-2.235 8.704,-1.083 15.752,4.402 2.774,-2.287 5.587,-4.605 8.618,-7.103 -5.192,-5.691 -11.481,-8.706 -18.887,-9.204 -2.746,-0.185 -5.625,0.095 -8.309,0.73 -13.16,3.116 -19.105,15.423 -14.15,28.971 4.388,12 17.54,19.976 30.229,18.334 C 8.296,17.866 13.96,11.215 14.138,0.272 14.19,-2.921 13.641,-6.124 13.351,-9.511" /></g><g
           transform="translate(577.1164,239.2304)"
           id="g60"><path
             id="path62"
             style="fill:#000000;fill-opacity:1;fill-rule:nonzero;stroke:none"
             d="m 0,0 h -13.921 c 2.131,15.182 4.238,30.197 6.366,45.353 H 5.968 C 5.767,43.648 5.574,42.019 5.349,40.11 c 0.504,0.437 0.871,0.707 1.181,1.031 5.598,5.858 12.368,7.232 19.934,4.974 4.716,-1.408 7.395,-4.99 7.483,-9.711 C 34.053,30.675 33.488,24.911 32.881,19.198 32.208,12.861 31.159,6.564 30.248,0.065 H 16.152 c 0.579,4.388 1.149,8.755 1.733,13.119 0.567,4.243 1.173,8.48 1.717,12.726 0.534,4.163 -0.647,7.046 -3.251,8.108 C 12.917,35.419 8.068,34.164 6.12,30.871 4.87,28.757 4.061,26.234 3.658,23.794 2.376,16.041 1.377,8.241 0.265,0.46 0.254,0.382 0.183,0.313 0,0" /></g><g
           transform="translate(577.9719,383.4687)"
           id="g64"><path
             id="path66"
             style="fill:#000000;fill-opacity:1;fill-rule:nonzero;stroke:none"
             d="M 0,0 H 14.138 C 13.076,-7.637 12.043,-15.136 10.989,-22.632 9.931,-30.157 8.853,-37.678 7.76,-45.363 H -5.746 c 0.191,1.807 0.377,3.566 0.564,5.324 -0.265,0.209 -0.53,0.417 -0.795,0.626 -0.446,-0.727 -0.768,-1.578 -1.357,-2.16 -5.007,-4.958 -13.592,-6.558 -20.004,-3.732 -4.734,2.086 -6.929,6.098 -6.674,10.932 0.393,7.481 1.416,14.932 2.275,22.384 0.459,3.981 1.133,7.937 1.72,11.971 h 14.123 c -1.101,-7.662 -2.217,-15.17 -3.235,-22.692 -0.267,-1.981 -0.409,-4.014 -0.287,-6.004 0.201,-3.29 2.153,-5.063 5.396,-5.255 4.861,-0.288 8.369,1.976 9.728,6.982 1.069,3.94 1.532,8.051 2.161,12.103 C -1.369,-9.97 -0.717,-5.04 0,0" /></g><g
           transform="translate(513.4562,239.2191)"
           id="g68"><path
             id="path70"
             style="fill:#000000;fill-opacity:1;fill-rule:nonzero;stroke:none"
             d="m 0,0 h -13.522 c 0.198,1.882 0.383,3.635 0.568,5.388 -0.233,0.161 -0.466,0.322 -0.699,0.484 -0.488,-0.696 -0.883,-1.486 -1.478,-2.072 -5.018,-4.931 -13.633,-6.507 -20.02,-3.661 -4.73,2.108 -6.887,6.134 -6.627,10.963 0.403,7.481 1.428,14.931 2.29,22.383 0.46,3.978 1.132,7.931 1.716,11.954 h 14.109 c -0.91,-6.373 -1.817,-12.632 -2.691,-18.895 -0.338,-2.421 -0.69,-4.846 -0.875,-7.281 -0.218,-2.87 -0.119,-5.864 2.985,-7.202 3.188,-1.374 6.653,-1.055 9.035,1.452 1.76,1.852 3.176,4.496 3.668,6.999 1.381,7.019 2.203,14.147 3.251,21.232 0.177,1.198 0.381,2.392 0.584,3.66 H 6.188 C 6.247,45.114 6.328,44.943 6.306,44.787 4.217,29.916 2.121,15.047 0,0" /></g><g
           transform="translate(363.5244,253.0335)"
           id="g72"><path
             id="path74"
             style="fill:#000000;fill-opacity:1;fill-rule:nonzero;stroke:none"
             d="m 0,0 c 4.745,1.102 9.238,2.145 13.721,3.185 1.611,-4.203 3.197,-5.581 6.342,-5.558 3.173,0.024 6.028,1.907 7,5.685 1.277,4.965 2.009,10.084 2.765,15.168 1.683,11.302 3.235,22.623 4.86,34.071 H 49.387 C 48.815,48.414 48.28,44.382 47.697,40.358 45.957,28.352 44.389,16.317 42.378,4.357 41.118,-3.139 37.866,-9.702 30.466,-13.077 23.485,-16.26 16.231,-16.511 9.067,-13.753 3.017,-11.423 0.386,-6.563 0,0" /></g><g
           transform="translate(694.5988,371.9697)"
           id="g76"><path
             id="path78"
             style="fill:#000000;fill-opacity:1;fill-rule:nonzero;stroke:none"
             d="m 0,0 h -12.539 c -0.791,-5.954 -1.731,-11.717 -2.268,-17.518 -0.355,-3.843 1.347,-5.431 5.271,-5.458 1.987,-0.014 3.975,0.299 6.247,0.487 -0.468,-3.354 -0.886,-6.79 -1.487,-10.194 -0.096,-0.547 -0.941,-1.222 -1.555,-1.376 -5.159,-1.297 -10.367,-1.564 -15.535,-0.104 -5.915,1.672 -8.73,5.951 -7.925,12.068 0.819,6.232 1.782,12.445 2.671,18.667 0.148,1.033 0.236,2.074 0.385,3.412 h -8.928 c 0.539,3.992 1.035,7.661 1.566,11.595 h 9.027 c 0.67,4.626 1.303,9.003 1.956,13.507 H -9.02 C -9.614,20.65 -10.19,16.35 -10.81,11.719 H 1.577 C 1.036,7.698 0.542,4.031 0,0" /></g><g
           transform="translate(542.3771,379.3242)"
           id="g80"><path
             id="path82"
             style="fill:#000000;fill-opacity:1;fill-rule:nonzero;stroke:none"
             d="m 0,0 c -4.052,-3.753 -7.434,-6.886 -10.797,-10.002 -4.843,3.992 -10.134,4.24 -14.65,0.794 -4.471,-3.411 -6.55,-10.752 -4.418,-15.596 2.023,-4.597 8.514,-6.538 13.277,-3.926 1.064,0.583 2.026,1.354 3.348,2.252 2.513,-3.125 5.052,-6.281 7.861,-9.773 -1.52,-1.065 -2.811,-2.219 -4.304,-2.974 -7.475,-3.78 -15.22,-4.396 -23.045,-1.28 -9.956,3.965 -14.34,14.17 -11.244,25.71 C -39.81,0.717 -21.965,9.926 -6.961,4.162 -4.607,3.257 -2.56,1.557 0,0" /></g><g
           transform="translate(601.9796,383.4859)"
           id="g84"><path
             id="path86"
             style="fill:#000000;fill-opacity:1;fill-rule:nonzero;stroke:none"
             d="m 0,0 h 14.09 c -0.274,-2.142 -0.533,-4.167 -0.91,-7.116 4.909,7.28 10.958,10.065 19.171,8.204 -0.575,-4.271 -1.13,-8.39 -1.696,-12.595 -2.397,0.199 -4.62,0.559 -6.84,0.535 -6.644,-0.074 -10.612,-2.973 -12.113,-9.393 C 10.493,-25.537 9.885,-30.852 9.06,-36.111 8.588,-39.123 8.215,-42.152 7.772,-45.355 H -6.373 C -4.242,-30.19 -2.123,-15.11 0,0" /></g><g
           transform="translate(523.3235,239.269)"
           id="g88"><path
             id="path90"
             style="fill:#000000;fill-opacity:1;fill-rule:nonzero;stroke:none"
             d="m 0,0 c 2.132,15.176 4.242,30.201 6.369,45.34 h 14.102 c -0.277,-2.074 -0.539,-4.041 -0.8,-6.008 4.767,6.223 10.83,8.943 19.044,7.187 -0.565,-4.252 -1.12,-8.437 -1.672,-12.595 -2.652,0.18 -5.064,0.542 -7.462,0.467 C 23.517,34.203 19.579,31.317 18.184,25.443 16.916,20.107 16.291,14.616 15.431,9.186 14.955,6.18 14.577,3.158 14.135,0 Z" /></g><g
           transform="translate(640.5113,383.4455)"
           id="g92"><path
             id="path94"
             style="fill:#000000;fill-opacity:1;fill-rule:nonzero;stroke:none"
             d="M 0,0 H 14.16 C 12.029,-15.165 9.918,-30.18 7.787,-45.345 H -6.373 C -4.249,-30.233 -2.133,-15.174 0,0" /></g><g
           transform="translate(657.7586,399.6888)"
           id="g96"><path
             id="path98"
             style="fill:#000000;fill-opacity:1;fill-rule:nonzero;stroke:none"
             d="m 0,0 c 0.003,-4.973 -4.378,-9.299 -9.398,-9.28 -4.088,0.016 -7.085,3.027 -7.074,7.11 0.012,4.736 4.43,9.072 9.316,9.142 C -3.022,7.031 -0.003,4.09 0,0" /></g><g
           transform="translate(148.1617,385.4164)"
           id="g100"><path
             id="path102"
             style="fill:#ffffff;fill-opacity:1;fill-rule:nonzero;stroke:none"
             d="M 0,0 C 0.579,1.041 1.024,1.691 1.313,2.403 1.593,3.092 1.804,3.836 1.879,4.572 1.965,5.414 2.192,6.715 1.773,7.025 1.131,7.498 -0.309,7.687 -0.861,7.27 -1.472,6.809 -1.778,5.485 -1.655,4.616 -1.472,3.33 -0.793,2.114 0,0 m 0.242,13.186 c 2.359,10e-4 4.717,0.024 7.075,-0.005 2.842,-0.036 3.943,-1.1 3.977,-3.893 0.038,-3.144 -0.064,-6.291 0.033,-9.432 0.074,-2.392 -1.355,-3.359 -3.324,-3.41 -5.15,-0.134 -10.308,-0.132 -15.459,-0.006 -2.281,0.056 -3.667,1.534 -3.767,3.818 -0.13,2.964 -0.09,5.939 -0.015,8.907 0.062,2.422 1.667,3.949 4.143,4.008 2.445,0.059 4.892,0.013 7.337,0.013" /></g><g
           transform="translate(212.0855,324.5821)"
           id="g104"><path
             id="path106"
             style="fill:#ffffff;fill-opacity:1;fill-rule:nonzero;stroke:none"
             d="M 0,0 C 0.29,0.338 0.683,0.606 0.797,0.964 1.226,2.308 1.82,3.679 1.835,5.046 1.844,5.812 0.936,7.092 0.263,7.223 -0.447,7.361 -2.114,6.324 -2.072,5.942 -1.868,4.075 -1.246,2.252 -0.728,0.426 -0.681,0.259 -0.323,0.181 0,0 m 0.12,12.634 c 2.357,10e-4 4.714,0.013 7.071,-0.002 2.433,-0.015 4.097,-1.491 4.173,-3.902 0.094,-2.965 0.088,-5.938 0.003,-8.903 -0.07,-2.476 -1.617,-3.896 -4.459,-3.953 -4.712,-0.096 -9.429,-0.094 -14.141,0 -2.683,0.054 -3.912,1.414 -3.933,4.013 -0.024,3.056 0.093,6.115 -0.036,9.165 -0.108,2.545 1.384,3.423 3.468,3.545 2.61,0.151 5.235,0.036 7.854,0.037" /></g><g
           transform="translate(143.9647,332.2325)"
           id="g108"><path
             id="path110"
             style="fill:#ffffff;fill-opacity:1;fill-rule:nonzero;stroke:none"
             d="M 0,0 C 0.264,-0.166 0.528,-0.333 0.792,-0.499 1.311,0.635 1.949,1.735 2.289,2.92 2.416,3.362 1.978,4.163 1.558,4.507 1.183,4.813 0.236,4.978 -0.027,4.736 -0.45,4.347 -0.732,3.557 -0.689,2.964 -0.618,1.964 -0.246,0.987 0,0 m 0.897,8.657 c 1.573,0 3.152,-0.09 4.717,0.021 C 8.157,8.859 8.903,7.303 9.199,5.224 9.224,5.052 9.2,4.875 9.205,4.7 9.393,-3.41 9.393,-3.41 1.3,-3.41 c -0.174,0 -0.349,0.004 -0.524,0 -10.16,-0.287 -8.192,0.827 -8.329,9.147 -0.029,1.799 1.1,2.855 2.945,2.907 1.834,0.053 3.67,0.012 5.505,0.013" /></g><g
           transform="translate(241.0894,379.3811)"
           id="g112"><path
             id="path114"
             style="fill:#ffffff;fill-opacity:1;fill-rule:nonzero;stroke:none"
             d="m 0,0 c -0.294,0.028 -0.588,0.056 -0.883,0.083 -0.363,-0.686 -1.113,-1.44 -1.007,-2.044 0.208,-1.192 0.891,-2.302 1.378,-3.446 0.437,1.095 1.049,2.159 1.244,3.295 C 0.842,-1.469 0.267,-0.708 0,0 m -0.349,3.482 c 1.662,0 3.332,-0.108 4.982,0.027 2.111,0.173 2.819,-1.042 2.906,-2.775 0.109,-2.18 0.336,-4.435 -0.102,-6.53 -0.224,-1.073 -1.719,-2.56 -2.756,-2.66 -3.465,-0.334 -6.985,-0.195 -10.48,-0.099 -1.79,0.049 -2.857,1.11 -2.887,2.974 -0.035,2.186 0.004,4.372 -0.012,6.558 -0.014,1.751 0.865,2.529 2.578,2.509 1.924,-0.022 3.848,-0.005 5.771,-0.004" /></g><g
           transform="translate(201.9294,422.3518)"
           id="g116"><path
             id="path118"
             style="fill:#ffffff;fill-opacity:1;fill-rule:nonzero;stroke:none"
             d="m 0,0 c 0.473,-1.554 0.745,-2.617 1.136,-3.633 0.112,-0.29 0.548,-0.539 0.882,-0.622 0.143,-0.035 0.523,0.371 0.586,0.628 0.12,0.497 0.124,1.03 0.119,1.548 -0.009,0.822 -0.065,1.644 -0.1,2.466 C 1.748,0.258 0.873,0.129 0,0 m 1.861,-7.483 c -1.831,0 -3.662,0.026 -5.492,-0.007 -1.868,-0.034 -2.682,0.867 -2.64,2.706 0.043,1.917 0.105,3.842 -0.015,5.752 -0.158,2.514 1.323,3.474 3.421,3.574 C 0.267,4.692 3.416,4.69 6.548,4.543 8.62,4.446 10.183,3.578 10.025,1.026 9.907,-0.885 10.083,-2.814 9.974,-4.726 9.876,-6.446 9.196,-7.669 7.09,-7.51 5.357,-7.379 3.605,-7.484 1.861,-7.483" /></g><g
           transform="translate(155.7991,399.7434)"
           id="g120"><path
             id="path122"
             style="fill:#ffffff;fill-opacity:1;fill-rule:nonzero;stroke:none"
             d="M 0,0 H -2.823 C -3.78,4.905 -4.49,5.739 -7.615,5.68 -10.495,5.626 -11.163,4.738 -11.794,0.029 h -2.741 c -0.565,2.881 0.302,5.459 2.417,7.32 2.127,1.871 4.892,2.065 7.532,1.05 C -0.875,6.974 -0.36,3.65 0,0" /></g><g
           transform="translate(218.613,338.3696)"
           id="g124"><path
             id="path126"
             style="fill:#ffffff;fill-opacity:1;fill-rule:nonzero;stroke:none"
             d="m 0,0 h -2.307 c -0.235,3.375 -0.495,7.046 -5.405,5.879 -2.791,-0.663 -3.3,-3.151 -3.213,-5.833 h -3.08 c 0.088,3.168 0.659,6.118 3.285,8.02 2.409,1.745 5.236,1.659 7.75,0.17 C 0.027,6.46 0.5,3.504 0,0" /></g><g
           transform="translate(209.3466,427.5659)"
           id="g128"><path
             id="path130"
             style="fill:#ffffff;fill-opacity:1;fill-rule:nonzero;stroke:none"
             d="M 0,0 H -2.452 C -2.857,2.091 -2.522,5.109 -6.113,4.428 -8.291,4.014 -8.689,2.155 -8.459,0.12 c -0.213,-0.142 -0.426,-0.285 -0.639,-0.427 -0.477,0.541 -1.293,1.038 -1.373,1.633 -0.333,2.489 1.498,4.941 3.8,5.372 C -4.13,7.174 -1.45,5.682 -0.689,3.284 -0.383,2.32 -0.265,1.296 0,0" /></g><g
           transform="translate(245.9941,384.0492)"
           id="g132"><path
             id="path134"
             style="fill:#ffffff;fill-opacity:1;fill-rule:nonzero;stroke:none"
             d="M 0,0 H -2.368 C -2.884,1.718 -2.283,4.046 -5.245,4.111 -7.251,4.156 -8.021,3.288 -8.391,1.504 -8.532,0.826 -9.156,0.249 -9.56,-0.374 c -0.436,0.223 -0.872,0.446 -1.308,0.669 0.701,1.713 1.014,3.788 2.197,5.047 1.537,1.635 4.049,1.655 5.941,0.555 C -0.712,4.724 -0.01,2.503 0,0" /></g><g
           transform="translate(149.7801,340.9612)"
           id="g136"><path
             id="path138"
             style="fill:#ffffff;fill-opacity:1;fill-rule:nonzero;stroke:none"
             d="M 0,0 C -0.833,0.613 -1.717,0.93 -1.784,1.37 -2.107,3.501 -2.592,5.38 -5.305,5.157 -8.031,4.934 -8.011,2.736 -8.28,0.701 -9.645,0.136 -10.361,0.426 -10.259,2.09 c 0.218,3.555 2.461,5.526 5.92,5.206 C -1.31,7.016 0.429,4.543 0,0" /></g><g
           transform="translate(148.1617,385.4164)"
           id="g140"><path
             id="path142"
             style="fill:#000000;fill-opacity:1;fill-rule:nonzero;stroke:none"
             d="M 0,0 C -0.793,2.114 -1.472,3.33 -1.655,4.616 -1.778,5.485 -1.472,6.809 -0.861,7.27 -0.309,7.687 1.131,7.498 1.773,7.025 2.192,6.715 1.965,5.414 1.879,4.572 1.804,3.836 1.593,3.092 1.313,2.403 1.024,1.691 0.579,1.041 0,0" /></g><g
           transform="translate(212.0855,324.5821)"
           id="g144"><path
             id="path146"
             style="fill:#000000;fill-opacity:1;fill-rule:nonzero;stroke:none"
             d="M 0,0 C -0.323,0.181 -0.681,0.259 -0.728,0.426 -1.246,2.252 -1.868,4.075 -2.072,5.942 -2.114,6.324 -0.447,7.361 0.263,7.223 0.936,7.092 1.844,5.812 1.835,5.046 1.82,3.679 1.226,2.308 0.797,0.964 0.683,0.606 0.29,0.338 0,0" /></g><g
           transform="translate(143.9647,332.2325)"
           id="g148"><path
             id="path150"
             style="fill:#000000;fill-opacity:1;fill-rule:nonzero;stroke:none"
             d="M 0,0 C -0.246,0.987 -0.618,1.964 -0.689,2.964 -0.732,3.557 -0.45,4.347 -0.027,4.736 0.236,4.978 1.183,4.813 1.558,4.507 1.978,4.163 2.416,3.362 2.289,2.92 1.949,1.735 1.311,0.635 0.792,-0.499 0.528,-0.333 0.264,-0.166 0,0" /></g><g
           transform="translate(241.0894,379.3811)"
           id="g152"><path
             id="path154"
             style="fill:#000000;fill-opacity:1;fill-rule:nonzero;stroke:none"
             d="m 0,0 c 0.267,-0.708 0.842,-1.469 0.732,-2.112 -0.195,-1.136 -0.807,-2.2 -1.244,-3.295 -0.487,1.144 -1.17,2.254 -1.378,3.446 -0.106,0.604 0.644,1.358 1.007,2.044 C -0.588,0.056 -0.294,0.028 0,0" /></g><g
           transform="translate(201.9294,422.3518)"
           id="g156"><path
             id="path158"
             style="fill:#000000;fill-opacity:1;fill-rule:nonzero;stroke:none"
             d="M 0,0 C 0.873,0.129 1.748,0.258 2.623,0.387 2.658,-0.435 2.714,-1.257 2.723,-2.079 2.728,-2.597 2.724,-3.13 2.604,-3.627 2.541,-3.884 2.161,-4.29 2.018,-4.255 1.684,-4.172 1.248,-3.923 1.136,-3.633 0.745,-2.617 0.473,-1.554 0,0" /></g></g></g></g></svg>