<svg id="Layer_1" xmlns="http://www.w3.org/2000/svg" viewBox="0 0 1042.6 156.2"><style>.st0{fill:#00a3df}.st1{fill:#231f20}</style><path class="st0" d="M717.4 0c-43.2 0-78.3 35-78.3 78.1 0 43.1 35.1 78.1 78.3 78.1 43.2 0 78.3-34.9 78.3-77.8 0-43.9-34.4-78.4-78.3-78.4zm0 126.1c-32.1 0-46.5-28.1-46.5-48s14.4-48 46.5-48c33.8 0 46.5 29.8 46.5 48.6 0 19.7-14.4 47.4-46.5 47.4zm96.2 27.5V32.8h-23.8V2.6H845.4v150.9h-31.8z" id="zero-one"/><path class="st1" d="M149.3 153.6h86.6v-30.1h-54.8v-31h54.8V62.4h-54.8V32.8h54.8V2.6h-86.6v151zM70.9 97.1c-8-20.8-36.6-94.5-36.6-94.5H0l60.8 151h20l60.6-151h-33.9S78.9 76.3 70.9 97.1zM412.3 2.6l-54.4 144.8-33.6-47.3c14.9-3.7 35.3-15.7 35.3-47.1 0-14.5-5.5-28.4-14.6-37.1-9.7-9.2-22.3-13.3-41.1-13.3H255v151h31.8v-53l37.7 53h64.3s7.1-18.8 11.8-31.3h49.6c4.7 12.5 11.8 31.3 11.8 31.3h33.9l-57.3-151h-26.3zM295 74.6h-8.2V32.8h15.8c18.6 0 25.2 10.5 25.2 20.3-.1 5.3-.1 21.5-32.8 21.5zm116.1 18.6c5.2-14.7 12-33.7 14.4-40.9l14.2 40.9h-28.6zM1042.6 32.8V2.6H956v151h86.7v-30.1h-54.9v-31h54.9V62.4h-54.9V32.8h54.8zM562.4 30.1c19.4 0 30.4 12.5 34.6 17.3l2.1 2.4H636l-5.2-8.9c-3.8-6.6-9.5-16.5-22.9-26.1C589.7 1.4 569.7 0 562 0c-42.8 0-77.5 34.8-77.5 77.5 0 43.4 34.7 78.7 77.4 78.7 28.6 0 54.2-15 68.3-40.1l4.9-8.5h-37.5l-1.7 2c-8.9 10.5-21.2 16.4-33.7 16.4-24.8 0-45.7-22.1-45.7-48.4-.3-26.1 20.4-47.5 45.9-47.5zM866.3 2.6h-8.2v30.1h8.1c35.8 0 45.4 28.8 45.4 45.7 0 40.6-32 45-45.8 45h-7.7v30.1h7.5c24.8 0 43.5-6.9 58.5-21.8 11.5-11.3 19.2-32.7 19.2-53.3 0-16.5-5.8-34.3-15.4-47.8-13.5-18.5-34.2-28-61.6-28z"/></svg>