<?xml version="1.0" standalone="no"?>
<!DOCTYPE svg PUBLIC "-//W3C//DTD SVG 20010904//EN"
 "http://www.w3.org/TR/2001/REC-SVG-20010904/DTD/svg10.dtd">
<svg version="1.0" xmlns="http://www.w3.org/2000/svg"
 width="524.000000pt" height="524.000000pt" viewBox="0 0 524.000000 524.000000"
 preserveAspectRatio="xMidYMid meet">
<metadata>
Created by potrace 1.11, written by Peter Selinger 2001-2013
</metadata>
<g transform="translate(0.000000,524.000000) scale(0.100000,-0.100000)"
fill="#000000" stroke="none">
<path d="M2439 5236 c-2 -2 -38 -6 -79 -10 -41 -3 -84 -8 -95 -10 -11 -2 -42
-7 -69 -10 -27 -4 -77 -13 -110 -21 -34 -8 -71 -16 -82 -18 -62 -11 -310 -91
-353 -113 -14 -8 -29 -14 -33 -14 -4 0 -47 -19 -95 -42 -49 -22 -91 -40 -95
-40 -5 1 -8 -3 -8 -8 0 -6 -4 -10 -10 -10 -15 0 -198 -108 -278 -164 -141 -98
-233 -176 -368 -310 -167 -168 -310 -354 -423 -555 -44 -78 -142 -276 -145
-295 -2 -6 -9 -27 -18 -46 -13 -30 -40 -105 -43 -120 -1 -3 -9 -30 -19 -60
-24 -74 -44 -153 -51 -192 -3 -18 -8 -40 -10 -48 -10 -36 -34 -186 -43 -269
-8 -80 -8 -454 1 -531 7 -65 16 -125 23 -160 5 -29 14 -77 20 -105 23 -127
101 -374 153 -490 187 -410 377 -671 702 -960 126 -113 344 -260 514 -347 176
-90 451 -191 607 -222 263 -53 341 -61 583 -61 276 0 444 21 685 86 41 11 82
22 90 24 81 21 281 102 406 163 94 47 306 175 324 197 7 8 16 15 21 15 5 0 55
37 111 82 135 107 314 287 417 418 45 58 89 113 97 123 8 9 14 19 14 21 0 2
18 30 39 62 21 33 49 77 61 99 70 125 113 209 145 285 39 92 117 310 110 310
-2 0 2 15 10 34 8 18 16 46 19 61 3 16 10 51 16 79 25 121 26 127 44 266 13
99 15 503 3 570 -3 14 -8 45 -11 70 -8 59 -14 99 -21 130 -2 14 -10 50 -16 80
-36 181 -135 454 -232 640 -33 63 -65 125 -71 137 -6 13 -14 23 -18 23 -5 0
-8 5 -8 10 0 15 -103 162 -188 270 -73 91 -249 274 -340 352 -132 114 -357
264 -516 345 -92 46 -246 113 -246 106 0 -3 -6 -1 -12 5 -11 8 -187 69 -223
76 -5 1 -19 5 -30 9 -11 3 -31 8 -45 11 -14 2 -47 10 -75 16 -27 6 -61 13 -75
15 -14 3 -34 6 -46 9 -12 2 -43 7 -70 10 -27 4 -65 9 -84 12 -40 6 -455 15
-461 10z m391 -409 c25 -3 69 -9 99 -12 30 -4 63 -9 75 -11 12 -3 34 -8 50
-10 17 -3 64 -15 105 -26 42 -10 84 -21 93 -23 45 -10 232 -82 313 -121 180
-88 308 -167 445 -278 72 -58 269 -249 300 -291 8 -11 33 -43 56 -70 183 -223
372 -626 420 -895 2 -14 9 -45 14 -70 39 -187 45 -502 14 -710 -44 -297 -128
-539 -278 -805 -22 -38 -43 -72 -46 -75 -4 -3 -13 -16 -20 -29 -7 -14 -17 -30
-21 -35 -5 -6 -41 -54 -81 -106 -62 -82 -264 -294 -324 -340 -91 -71 -148
-113 -199 -146 -33 -21 -62 -42 -65 -45 -16 -18 -306 -157 -395 -189 -49 -17
-97 -34 -105 -37 -8 -3 -22 -7 -30 -9 -8 -1 -49 -12 -90 -23 -41 -11 -91 -22
-110 -25 -19 -3 -48 -8 -65 -11 -121 -22 -213 -29 -365 -28 -74 0 -162 3 -195
6 -113 12 -132 15 -176 22 -64 11 -79 14 -97 19 -9 3 -30 8 -47 10 -75 13
-258 75 -374 126 -343 151 -630 378 -886 701 -34 43 -117 173 -164 256 -89
159 -162 346 -217 558 -4 17 -8 32 -9 35 -1 5 -22 128 -31 180 -23 145 -23
481 0 596 2 12 7 43 11 71 3 27 15 86 26 129 11 43 22 90 25 102 7 36 68 210
93 267 28 64 114 237 124 250 4 5 29 44 55 85 26 41 52 82 59 90 149 192 244
295 356 388 38 31 79 65 90 76 12 10 72 51 132 91 235 156 468 256 750 320 79
18 183 34 285 42 36 2 66 6 67 7 5 5 288 -2 333 -7z"/>
<path d="M3558 4224 c-7 -6 30 -86 44 -95 5 -3 10 -10 10 -15 0 -5 5 -20 10
-34 22 -59 21 -81 -13 -167 -32 -82 -33 -85 -43 -57 -10 32 -22 46 -53 62 -46
25 -111 8 -134 -36 -8 -13 -31 -35 -51 -48 -82 -52 -115 -151 -84 -256 20 -71
20 -71 -5 -58 -22 12 -130 15 -172 5 -23 -6 -29 -2 -44 24 -10 17 -21 31 -25
31 -5 0 -8 5 -8 11 0 6 -14 30 -30 54 -23 33 -29 51 -25 72 9 46 18 233 11
233 -8 0 -25 -42 -30 -78 -32 -200 -32 -201 9 -297 34 -80 34 -81 -36 -44
l-63 34 -45 139 c-59 179 -84 197 -50 36 6 -25 12 -54 14 -65 15 -84 38 -141
63 -162 33 -27 30 -27 -38 -7 -30 9 -63 26 -73 38 -10 11 -48 51 -84 89 -59
60 -83 78 -83 62 0 -6 23 -48 30 -55 3 -3 21 -25 40 -50 65 -86 85 -102 190
-151 58 -28 106 -52 108 -53 9 -10 -13 -36 -27 -32 -9 3 -29 8 -46 11 -16 3
-70 12 -120 21 -49 9 -99 18 -110 19 -19 3 -45 8 -105 19 -14 3 -43 8 -65 11
-90 13 -112 16 -165 25 -30 5 -80 12 -110 15 -30 4 -57 8 -60 10 -3 1 -36 6
-75 10 -38 4 -83 8 -100 10 -154 19 -168 20 -375 31 -256 12 -463 9 -700 -10
-14 -1 -42 -8 -62 -15 -38 -12 -38 -13 -23 -42 9 -15 41 -48 73 -71 31 -24 59
-45 62 -49 3 -3 12 -8 20 -12 19 -9 53 -30 60 -38 22 -24 340 -190 435 -227
32 -13 178 -47 235 -56 19 -3 58 -8 85 -13 28 -4 95 -7 151 -7 97 1 102 2 170
39 136 75 200 105 234 110 32 4 124 13 210 20 78 6 196 18 210 20 8 2 54 6
103 10 81 7 87 6 87 -11 0 -11 13 -44 29 -75 l28 -56 -31 16 c-21 11 -56 16
-106 16 -65 -1 -83 -5 -135 -33 -116 -62 -221 -150 -414 -343 -137 -138 -155
-157 -203 -227 -18 -26 -36 -49 -39 -52 -13 -12 -120 -184 -183 -294 -73 -131
-207 -396 -248 -493 -26 -61 -26 -62 -4 -53 69 26 358 167 471 229 124 69 349
208 385 239 8 7 42 34 75 59 124 94 396 385 482 515 71 107 91 225 51 306
l-16 32 41 -24 c23 -13 59 -29 80 -36 20 -6 35 -15 33 -18 -2 -4 -7 -43 -11
-87 -4 -44 -9 -91 -10 -105 -12 -113 -17 -164 -20 -201 -16 -213 -30 -270 -91
-365 -61 -95 -75 -138 -78 -229 -4 -133 37 -377 84 -495 30 -76 113 -244 122
-248 5 -2 8 -8 8 -13 0 -13 114 -201 163 -269 51 -70 105 -120 123 -113 8 3
14 6 14 8 0 1 5 26 10 55 29 153 31 662 5 935 -7 63 -13 121 -29 276 -4 31 -9
67 -11 80 -3 13 -8 44 -11 69 -3 25 -7 54 -9 65 -2 11 -6 40 -9 65 -4 25 -18
108 -31 185 -14 77 -27 154 -29 170 -2 17 -7 46 -11 65 -4 19 -9 44 -10 55 -2
11 -4 22 -5 25 -1 3 -2 8 -2 11 1 4 -3 21 -8 37 -6 23 -5 34 6 43 8 6 16 10
18 8 5 -6 50 -93 51 -99 0 -3 13 -31 28 -63 22 -44 46 -71 100 -115 40 -31 78
-62 85 -69 14 -14 51 -27 58 -21 4 5 -120 129 -166 167 -14 11 -22 20 -18 21
3 0 -2 23 -13 52 -22 60 -19 69 9 34 15 -20 42 -32 113 -50 52 -13 112 -27
134 -31 22 -4 51 -9 63 -11 16 -3 23 -1 20 8 -3 9 -137 64 -165 68 -2 0 -8 2
-15 4 -7 3 -33 10 -57 18 -39 11 -47 20 -77 76 -19 34 -31 62 -28 62 6 0 96
-36 130 -52 29 -13 161 -1 282 27 17 4 32 12 32 18 0 9 -128 5 -222 -8 -32 -4
-48 2 -123 50 -85 55 -86 57 -79 88 10 42 7 128 -6 161 -5 14 -8 26 -7 26 1 0
24 -7 51 -15 66 -20 132 -19 181 4 39 18 95 71 95 91 0 5 12 17 28 27 41 25
62 55 62 88 0 52 -10 71 -51 97 l-39 26 77 31 c100 39 147 33 255 -35 30 -19
43 -23 52 -14 8 8 6 15 -9 26 -36 28 -161 83 -191 85 -29 2 -129 -29 -182 -57
-24 -12 -28 -12 -40 4 -45 64 -83 104 -124 133 -26 19 -47 39 -48 46 0 7 11
37 24 67 27 62 41 112 37 141 -3 32 -43 127 -69 168 -24 36 -33 43 -44 31z"/>
</g>
</svg>
